<svg width="24" height="24" viewBox="0 0 24 24" fill="none" xmlns="http://www.w3.org/2000/svg">
  <path d="M12 8.25C9.92893 8.25 8.25 9.92893 8.25 12C8.25 14.0711 9.92893 15.75 12 15.75C14.0711 15.75 15.75 14.0711 15.75 12C15.75 9.92893 14.0711 8.25 12 8.25Z" stroke="#111827" stroke-width="1.8"/>
  <path d="M18.2 13.4L19.9 12L18.2 10.6L18.35 8.45L16.2 8.3L14.8 6.6L13.4 8.3L11.25 8.15L11.1 10.3L9.4 11.7L11.1 13.1L10.95 15.25L13.1 15.4L14.5 17.1L15.9 15.4L18.05 15.55L18.2 13.4Z" stroke="#111827" stroke-width="1.8" stroke-linejoin="round"/>
</svg>
