<svg width="194" height="34" viewBox="0 0 194 34" fill="none" xmlns="http://www.w3.org/2000/svg">
<g clip-path="url(#clip0_1643_6168)">
<path d="M21.9747 10.6993H26.8004V24.0576H38.4861V28.3429H21.9747V10.6993Z" fill="white"/>
<path d="M39.6404 10.6993H50.3089C56.2034 10.6993 58.057 12.8419 58.057 17.001C58.057 21.1601 56.2034 23.3027 50.3089 23.3027H44.466V28.3429H39.6404V10.6993ZM49.8778 19.0175C52.5459 19.0175 53.1042 18.3374 53.1042 17.001C53.1042 15.6646 52.5459 14.9845 49.8778 14.9845H44.466V19.0175H49.8778Z" fill="white"/>
<path d="M59.2133 10.6993H64.0389V17.3775H73.6922V10.6993H78.5179V28.3429H73.6922V21.6647H64.0389V28.3429H59.2133V10.6993Z" fill="white"/>
<path d="M12.9552 10.788H8.30634L0 28.4296H5.41174L5.48922 28.264L8.51693 21.8519H8.51097L10.6685 17.2907L12.8022 21.8519H12.7923L14.7849 26.1372L15.8518 28.4296H21.2615L12.9552 10.788Z" fill="white"/>
<path d="M92.0968 10.6993H87.4479L79.1416 28.3429H84.5514L84.6308 28.1773L87.6585 21.7632H87.6506L89.8101 17.202L91.9438 21.7632H91.9339L93.9265 26.0485L94.9934 28.3429H100.403L92.0968 10.6993Z" fill="white"/>
<path d="M165.668 16.9714C165.668 26.4072 158.015 34 148.562 34C139.11 34 131.399 26.4072 131.399 16.9714C131.399 7.53562 139.052 0 148.56 0C158.069 0 165.666 7.59279 165.666 16.9714H165.668Z" fill="#1109F0"/>
<path d="M116.456 20.1311H119.861C118.893 21.4104 117.356 22.2402 115.621 22.2402C112.691 22.2402 110.315 19.8828 110.315 16.9754C110.315 14.0679 112.691 11.7105 115.621 11.7105C117.358 11.7105 118.895 12.5423 119.863 13.8216H132.433C130.943 5.95478 123.985 0 115.621 0C106.171 0 98.5118 7.60067 98.5118 16.9754C98.5118 26.35 106.173 33.9507 115.621 33.9507C123.983 33.9507 130.941 27.9979 132.433 20.1292V15.633H116.456V20.1292V20.1311Z" fill="#1109F0"/>
<path d="M146.88 14.6731H144.146V13.6402H150.915V14.6731H148.181V21.6469H150.915V22.6798H144.146V21.6469H146.88V14.6731Z" fill="white"/>
<path d="M152.607 13.6402H153.909L158.335 20.7185V13.6402H159.636V22.6818H158.335L153.909 15.6035V22.6818H152.607V13.6402Z" fill="white"/>
<path d="M161.067 14.6731L162.368 13.6402H168.096V14.6731H162.368V17.6436H167.055L168.356 18.6764V21.6469L167.055 22.6798H161.327V21.6469H167.055V18.6764H162.368L161.067 17.6436V14.6731Z" fill="white"/>
<path d="M172.653 14.6731H169.919V13.6402H176.688V14.6731H173.954V21.6469H176.688V22.6798H169.919V21.6469H172.653V14.6731Z" fill="white"/>
<path d="M183.717 13.6402L185.67 15.5778V20.7442L183.717 22.6818H179.422L178.12 21.6489V13.6422H183.717V13.6402ZM183.105 21.6469L184.368 20.3933V15.9248L183.105 14.6711H179.422V21.645H183.105V21.6469Z" fill="white"/>
<path d="M193.348 18.6764H188.272V21.6469H194V22.6798H188.272L186.971 21.6469V14.6731L188.272 13.6402H193.869V14.6731H188.272V17.6436H193.348V18.6764Z" fill="white"/>
</g>
<defs>
<clipPath id="clip0_1643_6168">
<rect width="194" height="34" fill="white"/>
</clipPath>
</defs>
</svg>
